<svg viewBox="0 0 500 200" xmlns="http://www.w3.org/2000/svg" xmlns:xlink="http://www.w3.org/1999/xlink"><filter id="a" filterUnits="userSpaceOnUse" height="153.12" width="508.8" x="-4.86" y="21.06"><feOffset dx="0" dy="0"/><feGaussianBlur result="blur" stdDeviation="7.22"/><feFlood flood-color="#1eff53"/><feComposite in2="blur" operator="in"/><feComposite in="SourceGraphic"/></filter><filter id="b" filterUnits="userSpaceOnUse" height="153.12" width="508.8" x="-4.86" y="21.06"><feOffset dx="0" dy="0"/><feGaussianBlur result="blur-2" stdDeviation="7.22"/><feFlood flood-color="#1eff53"/><feComposite in2="blur-2" operator="in"/><feComposite in="SourceGraphic"/></filter><filter id="c" filterUnits="userSpaceOnUse" height="132.96" width="488.64" x="5.24" y="31.16"><feOffset dx="0" dy="0"/><feGaussianBlur result="blur-3" stdDeviation="4.81"/><feFlood flood-color="#1eff53"/><feComposite in2="blur-3" operator="in"/><feComposite in="SourceGraphic"/></filter><g filter="url(#a)"><path d="m442.89 148.77h-386.57c-19.77 0-35.79-20.15-35.79-45v-12.38c0-24.85 16.02-45 35.79-45h386.15c19.77 0 35.79 20.15 35.79 45v12.38c0 24.85-16.02 45-35.79 45" fill="none" stroke="#1eff53" stroke-linecap="round" stroke-linejoin="round" stroke-width="6.71"/></g><g filter="url(#b)"><path d="m442.89 148.77h-386.57c-19.77 0-35.79-20.15-35.79-45v-12.38c0-24.85 16.02-45 35.79-45h386.15c19.77 0 35.79 20.15 35.79 45v12.38c0 24.85-16.02 45-35.79 45" fill="none" stroke="#1eff53" stroke-linecap="round" stroke-linejoin="round" stroke-width="6.71"/></g><g filter="url(#c)"><path d="m442.89 148.77h-386.57c-19.77 0-35.79-20.15-35.79-45v-12.38c0-24.85 16.02-45 35.79-45h386.15c19.77 0 35.79 20.15 35.79 45v12.38c0 24.85-16.02 45-35.79 45" fill="none" stroke="#c2ffc6" stroke-linecap="round" stroke-linejoin="round"/></g></svg>